<?xml version="1.0" encoding="UTF-8"?>
<svg enable-background="new 0 0 779 599" version="1.1" viewBox="0 0 779 599" xmlns="http://www.w3.org/2000/svg">
 <path d="m514.38 294.69c1.002 7.233 2.434 31.767 10.742 35.757 26.906 12.942 36.344-47.829 39.332-62.459 2.973-14.568-1.15-48.832-23.25-40.596-0.727 0.266-1.248 0.604-1.621 0.972-9.643-4.154-20.713-3.089-24.232 8.707-5.213 17.462-3.432 39.94-0.971 57.619z" fill="#D8B78B"/>
 <path d="m263.36 237.07c-3.52-11.796-14.589-12.86-24.232-8.707-0.373-0.368-0.895-0.706-1.616-0.972-22.099-8.236-26.227 26.027-23.255 40.596 2.988 14.63 12.425 75.401 39.333 62.459 8.308-3.99 9.74-28.524 10.742-35.757 2.461-17.677 4.24-40.155-0.972-57.619z" fill="#D8B78B"/>
 <path d="m539.09 262.76c0-80.015-66.869-144.89-149.36-144.89-82.48 0-149.35 58.786-149.35 144.89 0 160.8 66.869 144.89 149.35 144.89 82.486 0 149.36 15.908 149.36-144.89z" fill="#7F512E"/>
 <path d="m429.1 410.7h-4e-3c-6.154 0-12.466-0.107-18.909-0.209-13.382-0.225-27.542-0.225-40.913 0-6.443 0.102-12.755 0.209-18.912 0.209-63.8 0-112.6-10.895-112.6-147.94 0-84.092 65.332-147.51 151.97-147.51 83.798 0 151.97 66.173 151.97 147.51 0 63.38-10.164 103.06-31.992 124.86-19.245 19.225-45.112 23.086-80.609 23.086zm-39.372-5.672c6.97 0 13.827 0.111 20.543 0.225 6.415 0.107 12.698 0.209 18.825 0.209 34.16 0 58.941-3.605 76.912-21.556 20.777-20.753 30.455-59.247 30.455-121.15 0-78.45-65.826-142.27-146.74-142.27-83.649 0-146.73 61.165-146.73 142.27 0 132.47 44.499 142.7 107.36 142.7 6.128 0 12.412-0.102 18.825-0.209 6.714-0.113 13.571-0.225 20.541-0.225z"/>
 <path d="m266.73 312.66c0 74.378 55.308 134.67 123.53 134.67 68.215 0 123.52-60.29 123.52-134.67 0-74.368-0.654-168.41-124.06-139.13-139.77-29.281-122.99 64.761-122.99 139.13z" fill="#D8B78B"/>
 <path d="m390.26 450.48c-69.851 0-126.68-61.824-126.68-137.81 0-7.126-0.156-14.431-0.312-21.792-0.852-40.289-1.734-81.954 21.899-106.09 19.876-20.303 53.804-24.979 104.51-14.471 15.306-3.586 29.337-5.407 41.723-5.407 85.525 0 85.525 85.402 85.525 147.76 1e-3 75.987-56.822 137.81-126.67 137.81zm-46.957-279.28c-24.242 0-41.788 5.888-53.635 17.986-21.784 22.252-20.93 62.566-20.106 101.56 0.158 7.402 0.312 14.758 0.312 21.925 0 72.521 54.006 131.52 120.39 131.52 66.375 0 120.38-59.002 120.38-131.52 0-63.027 0-141.47-79.234-141.47-12.082 0-25.86 1.816-40.953 5.402l-0.683 0.159-0.688-0.144c-17.155-3.591-32.555-5.417-45.776-5.417z"/>
 <path d="m538.65 252.08l-10.303 98.236s-136.63-119.78-277.23 0l-10.374-98.236c149.18-68.229 297.91 0 297.91 0"/>
 <path d="m530.42 355.61l-3.803-3.33c-0.602-0.527-60.992-52.586-141.14-52.586-47.051 0-91.688 17.699-132.67 52.612l-3.78 3.217-11.095-105.04 1.713-0.788c44.341-20.278 92.999-30.56 144.63-30.56 87.829 0 154.79 30.258 155.46 30.564l1.709 0.783-11.026 105.13zm-144.94-61.155c70.534 0 126.06 39.307 140.76 50.781l9.6-91.53c-10.916-4.645-72.682-29.337-151.56-29.337-50.208 0-97.546 9.857-140.74 29.311l9.661 91.469c40.913-33.644 85.394-50.694 132.27-50.694z"/>
 <path d="m364.74 272.54c0-24.687-15.648-44.708-34.949-44.708-19.3 0-34.943 20.021-34.943 44.708 0 24.697 15.643 44.709 34.943 44.709 19.301 0 34.949-20.012 34.949-44.709z" fill="#fff"/>
 <path d="m329.79 319.86c-20.712 0-37.563-21.229-37.563-47.328s16.851-47.328 37.563-47.328c20.715 0 37.568 21.229 37.568 47.328-1e-3 26.1-16.854 47.328-37.568 47.328zm0-89.417c-17.824 0-32.324 18.881-32.324 42.089s14.5 42.09 32.324 42.09c17.827 0 32.33-18.881 32.33-42.09s-14.503-42.089-32.33-42.089z"/>
 <path d="m485.21 272.54c0-24.687-15.645-44.708-34.943-44.708-19.301 0-34.944 20.021-34.944 44.708 0 24.697 15.643 44.709 34.944 44.709 19.298 0 34.943-20.012 34.943-44.709z" fill="#fff"/>
 <path d="m450.27 319.86c-20.713 0-37.563-21.229-37.563-47.328s16.85-47.328 37.563-47.328c20.711 0 37.563 21.229 37.563 47.328-1e-3 26.1-16.853 47.328-37.563 47.328zm0-89.417c-17.826 0-32.325 18.881-32.325 42.089s14.499 42.09 32.325 42.09c17.824 0 32.324-18.881 32.324-42.09s-14.5-42.089-32.324-42.089z"/>
 <path d="m317.98 288.06c0 12.165 6.313 22.027 14.098 22.027 7.791 0 14.103-9.863 14.103-22.027 0-12.174-6.313-22.037-14.103-22.037-7.785 0-14.098 9.862-14.098 22.037z"/>
 <path d="m433.22 288.06c0 12.165 6.313 22.027 14.104 22.027s14.104-9.863 14.104-22.027c0-12.174-6.313-22.037-14.104-22.037s-14.104 9.862-14.104 22.037z"/>
 <path d="m542.8 389.29c0 50.724-68.531 91.842-153.06 91.842-84.537 0-153.06-41.118-153.06-91.842 0-50.714 68.526-91.832 153.06-91.832 84.532 0 153.06 41.118 153.06 91.832z" fill="#D8B78B"/>
 <path d="m389.74 483.75c-85.844 0-155.68-42.376-155.68-94.461 0-52.08 69.838-94.451 155.68-94.451 85.844 0 155.68 42.371 155.68 94.451 0 52.085-69.838 94.461-155.68 94.461zm0-183.67c-82.954 0-150.44 40.023-150.44 89.213 0 49.2 67.49 89.223 150.44 89.223 82.953 0 150.44-40.022 150.44-89.223 1e-3 -49.19-67.49-89.213-150.44-89.213z"/>
 <path d="m245.16 327.66c-0.021 0-2.466 0.573-5.914-1.544-5.366-3.284-12.804-12.635-17.807-38.744-2.931-10.896-4.461-19.715-4.998-26.866-0.107-1.422-0.179-2.783-0.209-4.082-0.322-12.983 2.982-19.551 6.614-22.866 5.785-5.279 14.262-4.062 18.19-3.1 1.31 0.317 2.118 0.614 2.148 0.624l1.836-4.911c-0.634-0.235-15.571-5.688-25.674 3.489-8.809 8-10.661 24.257-5.576 48.259 0.721 3.407 1.585 6.988 2.583 10.712 4.271 22.262 11.055 36.381 20.155 41.957 3.177 1.944 5.939 2.384 7.775 2.384 1.305 0 2.148-0.225 2.338-0.276l-1.461-5.036z"/>
 <path d="m559.66 229.66c-10.098-9.177-25.039-3.724-25.674-3.489l1.836 4.911c0.123-0.051 12.631-4.563 20.34 2.476 0.363 0.328 0.721 0.696 1.078 1.095 4.947 5.596 8.59 18.19 1.895 46.54-0.471 1.985-0.994 4.042-1.566 6.18-0.016 0.071-0.031 0.123-0.047 0.194-4.889 25.567-12.205 34.989-17.484 38.386-3.586 2.302-6.143 1.719-6.189 1.708l-1.463 5.034c0.195 0.051 1.033 0.276 2.338 0.276 1.836 0 4.604-0.44 7.781-2.384 9.109-5.586 15.893-19.725 20.119-41.854 8.087-30.068 7.089-49.947-2.964-59.073z"/>
 <path d="m300.58 225.94c-0.624 2.875 3.315-1.544 5.52-2.701 3.734-1.964 8.497-3.08 13.223-3.949 11.919-2.189 25.219-0.665 37.256 2.292 2.481 0.614 7.136-14.661 1.657-16.001-26.6-6.538-58.668-3.08-62.741 15.53-0.573 2.619-1.744 7.468 0.982 10.046 2.041 1.945 4.036-4.889 4.103-5.217z"/>
 <path d="m480.59 225.94c0.629 2.875-3.316-1.544-5.52-2.701-3.73-1.964-8.498-3.08-13.219-3.949-11.92-2.189-25.219-0.665-37.256 2.292-2.48 0.614-7.136-14.661-1.662-16.001 26.6-6.538 58.674-3.08 62.74 15.53 0.572 2.619 1.744 7.468-0.982 10.046-2.041 1.945-4.031-4.889-4.101-5.217z"/>
 <path d="m455.49 411.03c-2.057 3.53-6.949 5.101-10.756 5.464-39.074 3.744-83.159-11.566-120.06-22.053-7.719-2.195-17.433-0.824-25.109 0.809-1.993 0.424-13.528 3.697-6.095 5.811 49.791 14.154 102.69 27.807 154.94 22.799 10.723-1.022 35.885-2.547 42.479-13.873 1.67-2.87-31.166-6.225-35.399 1.043z"/>
 <path d="m538.65 252.08" stroke="#000" stroke-miterlimit="10"/>
 <path d="m532.38 332.69" fill="none" stroke="#000" stroke-miterlimit="10"/>
</svg>
