<?xml version="1.0" encoding="UTF-8" standalone="no"?>
<svg xmlns="http://www.w3.org/2000/svg" version="1.1" viewBox="0 0 251.63 63.266">
<g transform="translate(-131 -130.86)">
<path d="m157.53 165.88c-3.5196 0.7041-6.8794 1.0562-10.08 1.0562-1.2803 0-2.4883-0.0562-3.624-0.16845-1.1358-0.11231-2.3997-0.3523-3.7918-0.71997-1.3921-0.36768-2.5762-0.86353-3.5522-1.4876-0.97608-0.62402-1.8-1.5042-2.4719-2.6404-0.67188-1.1362-1.0078-2.4724-1.0078-4.0086v-13.68c-0.00001-6.2715 4.8159-9.4072 14.448-9.4072 2.3681 0.00003 5.664 0.35208 9.8877 1.0562v5.6162c-3.8076-0.89646-7.0713-1.3447-9.791-1.3447-1.0879 0.00002-1.9758 0.032-2.6638 0.0959-0.688 0.064-1.4082 0.22391-2.1606 0.47974-0.75246 0.25588-1.3125 0.66384-1.6802 1.2239-0.36769 0.56008-0.55152 1.2884-0.55151 2.1848v13.248c-0.00001 2.8154 2.5757 4.2232 7.727 4.2231 2.2724 0.00001 5.3764-0.46386 9.312-1.3916z" fill="#a2a2a2"/>
<path d="m177.29 148.56h-2.4009c-1.9199 0.00002-3.3679 0.29592-4.344 0.8877-0.97609 0.59181-1.4641 1.6079-1.4641 3.0483v13.967h-7.0078v-23.232h6.6724v4.0811c0.0322-1.1523 0.69628-2.2004 1.9922-3.1443 1.2959-0.94382 2.6479-1.4158 4.0562-1.4158h2.4961z" fill="#a2a2a2"/>
<path d="m204.04 151.63v6.8643c-0.00002 1.5039-0.24001 2.7918-0.71997 3.8635-0.48 1.0718-1.072 1.9036-1.7761 2.4954-0.70413 0.59179-1.624 1.0478-2.7598 1.3682-1.1358 0.32031-2.1756 0.52051-3.1194 0.60059-0.94387 0.0801-2.0879 0.12011-3.4321 0.12011s-2.4883-0.04-3.4321-0.12011c-0.94386-0.0801-1.9839-0.28028-3.1201-0.60059s-2.0564-0.77637-2.7605-1.3682c-0.7041-0.5918-1.2961-1.4236-1.7761-2.4954-0.47998-1.0718-0.71997-2.3596-0.71997-3.8635v-6.8643c0-1.6006 0.24805-2.9687 0.74414-4.1045 0.49609-1.1357 1.1042-2.0076 1.8245-2.6155 0.72021-0.60789 1.6562-1.08 2.8081-1.4165 1.1518-0.33641 2.1838-0.54441 3.096-0.62403 0.9121-0.0796 2.0242-0.11936 3.3362-0.11938 1.312 0.00002 2.424 0.0398 3.3362 0.11938 0.91209 0.0796 1.9441 0.28762 3.096 0.62403 1.1518 0.33645 2.0876 0.80861 2.8074 1.4165 0.7197 0.60793 1.3276 1.4798 1.8237 2.6155 0.49607 1.1358 0.74412 2.5039 0.74414 4.1045zm-7.0078 7.6802v-8.7847c-0.00002-1.248-0.32009-2.136-0.96021-2.6638-0.64015-0.52781-1.9202-0.79173-3.8401-0.79175-1.9199 0.00002-3.1997 0.26394-3.8394 0.79175-0.63966 0.52785-0.95948 1.4158-0.95947 2.6638v8.7847c-0.00001 1.2158 0.31176 2.0637 0.9353 2.5437 0.62353 0.47998 1.9114 0.71997 3.8635 0.71997s3.2402-0.23999 3.8642-0.71997c0.62401-0.47998 0.93602-1.3279 0.93604-2.5437z" fill="#a2a2a2"/>
<path d="m229.52 157.39v2.9282c-0.00002 1.1514-0.21584 2.1431-0.64746 2.9751-0.43166 0.83203-0.97561 1.4802-1.6318 1.9446-0.65627 0.46435-1.5125 0.82446-2.5686 1.0803-1.0562 0.25586-2.072 0.42383-3.0476 0.50391-0.9756 0.0801-2.1196 0.12011-3.4321 0.12011-2.5283 0-5.5845-0.24023-9.1684-0.7207v-4.6553c4.4482 0.67188 7.5366 1.0078 9.2651 1.0078 1.376 0 2.4399-0.13598 3.1919-0.40796 0.75193-0.27197 1.1279-0.80786 1.1279-1.6077v-1.4414c-0.00002-0.73535-0.20803-1.2871-0.62403-1.6553-0.41603-0.36815-1.312-0.55223-2.688-0.55224h-3.0249c-2.4316 0.00001-4.3274-0.48803-5.6872-1.4641-1.3599-0.97607-2.0398-2.408-2.0398-4.2957v-2.8315c0-2.1123 1.0081-3.5683 3.0242-4.3682 2.0161-0.79979 4.864-1.1997 8.5437-1.1997 1.5361 0.00002 4.2881 0.14407 8.2559 0.43213v4.4634c-4.9922-0.38377-7.8081-0.57567-8.4478-0.57569-1.9522 0.00002-3.1843 0.13601-3.6965 0.40796-0.51222 0.27199-0.76832 0.79177-0.76832 1.5593v1.248c0 0.3838 0.20019 0.73585 0.60059 1.0562 0.40038 0.32032 1.0166 0.48048 1.8486 0.48047h3.0718c5.6953 0.00001 8.543 1.856 8.543 5.5679z" fill="#a2a2a2"/>
<path d="m254.74 157.39v2.9282c-0.00002 1.1514-0.21584 2.1431-0.64746 2.9751-0.43166 0.83203-0.97561 1.4802-1.6318 1.9446-0.65627 0.46435-1.5125 0.82446-2.5686 1.0803-1.0562 0.25586-2.072 0.42383-3.0476 0.50391-0.9756 0.0801-2.1196 0.12011-3.4321 0.12011-2.5283 0-5.5845-0.24023-9.1684-0.7207v-4.6553c4.4482 0.67188 7.5366 1.0078 9.2651 1.0078 1.376 0 2.4399-0.13598 3.1919-0.40796 0.75193-0.27197 1.1279-0.80786 1.1279-1.6077v-1.4414c-0.00002-0.73535-0.20803-1.2871-0.62403-1.6553-0.41603-0.36815-1.312-0.55223-2.688-0.55224h-3.0249c-2.4316 0.00001-4.3274-0.48803-5.6872-1.4641-1.3599-0.97607-2.0398-2.408-2.0398-4.2957v-2.8315c0-2.1123 1.0081-3.5683 3.0242-4.3682 2.0161-0.79979 4.864-1.1997 8.5437-1.1997 1.5361 0.00002 4.2881 0.14407 8.2559 0.43213v4.4634c-4.9922-0.38377-7.8081-0.57567-8.4478-0.57569-1.9522 0.00002-3.1843 0.13601-3.6965 0.40796-0.51222 0.27199-0.76832 0.79177-0.76832 1.5593v1.248c0 0.3838 0.20019 0.73585 0.60059 1.0562 0.40038 0.32032 1.0166 0.48048 1.8486 0.48047h3.0718c5.6953 0.00001 8.543 1.856 8.543 5.5679z" fill="#a2a2a2"/>
<path d="m283.75 150.57v7.6318c-0.00003 3.168-0.95193 5.416-2.8557 6.7441s-4.968 1.9922-9.1926 1.9922c-4.4473 0-7.519-0.69604-9.2153-2.0881s-2.5444-3.6082-2.5444-6.6482v-25.345h7.0078v12.672c0.416-1.0556 1.1921-1.7834 2.3284-2.1834 1.1362-0.39988 2.8723-0.59983 5.2082-0.59985 1.9834 0.00002 3.5991 0.15993 4.8472 0.47974 1.248 0.31984 2.1921 0.83986 2.8323 1.56 0.64011 0.72024 1.0642 1.5122 1.2722 2.376 0.20798 0.86379 0.31198 1.9998 0.31201 3.408zm-7.0078 8.543v-8.5913c-0.00002-1.5039-0.28005-2.4558-0.84009-2.8557-0.56008-0.39989-1.9441-0.59984-4.1521-0.59986-1.9844 0.00002-3.2805 0.25588-3.8884 0.76758-0.60792 0.51174-0.91187 1.4077-0.91186 2.688v8.5913c-0.00001 1.377 0.29613 2.2974 0.88842 2.7612 0.59228 0.46387 1.9124 0.6958 3.9602 0.6958s3.3838-0.23193 4.0078-0.6958c0.62401-0.46386 0.93602-1.3843 0.93604-2.7612z" fill="#a2a2a2"/>
<path d="m310.12 166.46h-6.8643v-2.1123c-0.51174 0.92774-1.2476 1.5918-2.2075 1.9922-0.95998 0.40039-2.7202 0.60058-5.2808 0.60058-3.1358 0-5.2156-0.47998-6.2395-1.4399-1.0239-0.95996-1.5359-2.96-1.5359-6 0-2.7519 0.52807-4.664 1.5842-5.7363 1.0561-1.0722 2.9441-1.6084 5.6638-1.6084h7.8721v-1.5835c-0.00001-1.4082-0.32814-2.3442-0.98437-2.8081-0.65627-0.46384-2.04-0.69578-4.1514-0.6958-1.9844 0.00002-4.7046 0.19192-8.1606 0.57569v-4.4165c2.6562-0.31931 5.6162-0.47898 8.8799-0.479 4.2881 0.00002 7.2641 0.52004 8.9282 1.5601 1.664 1.0401 2.4961 3.0957 2.4961 6.167zm-7.0078-5.9517v-4.5117h-4.8003c-1.5361 0.00001-2.4961 0.17579-2.8799 0.52734-0.3838 0.35157-0.57569 1.2954-0.57568 2.8315-0.00001 1.5039 0.19994 2.416 0.59985 2.7363 0.39989 0.32032 1.4158 0.48047 3.0476 0.48047 0.79979 0 1.3918-0.008 1.7761-0.0242 0.38426-0.0161 0.80028-0.0562 1.248-0.12012 0.44773-0.064 0.75975-0.16796 0.93603-0.31201 0.17625-0.14404 0.32835-0.34399 0.4563-0.59985 0.12791-0.25586 0.19188-0.59179 0.19189-1.0078z" fill="#a2a2a2"/>
<path d="m331.5 148.56h-2.4009c-1.9199 0.00002-3.3679 0.29592-4.344 0.8877-0.97609 0.59181-1.4641 1.6079-1.4641 3.0483v13.967h-7.0078v-23.232h6.6724v4.0811c0.0322-1.1523 0.69628-2.2004 1.9922-3.1443 1.2959-0.94382 2.6479-1.4158 4.0562-1.4158h2.4961z" fill="#a2a2a2"/>
<path d="m341.18 166.46h-5.5679v-5.1841h5.5679z" fill="#fff"/>
<path d="m352.59 139.34h-4.3198v-4.5117h4.3198zm0 27.12h-4.3198v-23.232h4.3198z" fill="#fff"/>
<path d="m380.63 151.05v8.064c-0.00002 1.4404-0.17605 2.6567-0.52807 3.6489-0.35208 0.99219-0.80008 1.7603-1.344 2.3042-0.54397 0.54395-1.3201 0.95996-2.3284 1.248-1.0083 0.28809-1.9685 0.46411-2.8806 0.52808-0.91213 0.064-2.1201 0.0959-3.624 0.0959-1.9199 0-3.4158-0.064-4.4876-0.19189-1.0718-0.12793-2.1438-0.43994-3.2161-0.93604-1.0723-0.49609-1.8403-1.2881-2.3042-2.376-0.46387-1.0879-0.6958-2.5283-0.6958-4.3213v-8.064c0-1.5351 0.18408-2.8308 0.55225-3.887 0.36816-1.0561 0.81615-1.8723 1.344-2.4485 0.52783-0.57615 1.3037-1.0161 2.3276-1.3198 1.0239-0.30369 1.9758-0.48753 2.8557-0.55151 0.87987-0.064 2.0879-0.0959 3.624-0.0959 1.5361 0.00002 2.7441 0.032 3.624 0.0959 0.87986 0.064 1.832 0.24782 2.8564 0.55151 1.0244 0.30373 1.8005 0.74367 2.3284 1.3198 0.52781 0.5762 0.97581 1.3924 1.344 2.4485 0.36814 1.0562 0.55222 2.3518 0.55224 3.887zm-4.4165 8.688v-9.4072c-0.00002-2.1445-0.43215-3.4726-1.2964-3.9844-0.86427-0.5117-2.5283-0.76756-4.9922-0.76758-2.4639 0.00002-4.1277 0.25588-4.9914 0.76758-0.86378 0.51174-1.2957 1.8399-1.2957 3.9844v9.4072c0 1.0244 0.11181 1.8406 0.33545 2.4485 0.22363 0.60791 0.63964 1.0478 1.248 1.3198 0.60839 0.27198 1.2324 0.43995 1.8721 0.50391 0.63964 0.064 1.5835 0.096 2.8315 0.096s2.1921-0.032 2.8323-0.096c0.64012-0.064 1.2641-0.23193 1.8721-0.50391 0.60789-0.27197 1.0239-0.71191 1.248-1.3198 0.2241-0.60791 0.33616-1.4241 0.33618-2.4485z" fill="#fff"/>
<g fill="#ff0">
<path style="" d="m203.13 191.33h-2.91v-19.47h2.91v19.47z"/>
<path style="" d="m220.85 181.7v5.04q0 1.35-0.33 2.28t-0.84 1.44-1.47 0.78q-0.93 0.27-1.8 0.33-0.84 0.06-2.25 0.06-1.8 0-2.82-0.12-0.99-0.12-2.01-0.57-0.99-0.48-1.44-1.5-0.42-1.02-0.42-2.7v-5.04q0-1.44 0.33-2.43 0.36-0.99 0.84-1.53 0.51-0.54 1.47-0.81 0.96-0.3 1.77-0.36 0.84-0.06 2.28-0.06t2.25 0.06q0.84 0.06 1.8 0.36 0.96 0.27 1.44 0.81 0.51 0.54 0.84 1.53 0.36 0.99 0.36 2.43zm-2.76 5.43v-5.88q0-2.01-0.81-2.49t-3.12-0.48-3.12 0.48-0.81 2.49v5.88q0 0.96 0.21 1.53t0.78 0.84q0.57 0.24 1.17 0.3t1.77 0.06 1.77-0.06 1.17-0.3q0.57-0.27 0.78-0.84t0.21-1.53z"/>
<path style="" d="m239.55 173.9h-6.57v17.43h-2.94v-17.43h-6.6v-2.04h16.11v2.04z"/>
<path style="" d="m262.79 191.06q-2.61 0.57-5.46 0.57-8.19 0-8.19-5.28v-9.24q0-5.58 8.19-5.58 2.73 0 5.34 0.57v2.16q-2.88-0.72-5.28-0.72-1.14 0-2.01 0.15-0.87 0.12-1.71 0.48-0.84 0.33-1.29 1.08-0.45 0.72-0.45 1.83v9.12q0 3.36 5.58 3.36 2.4 0 5.28-0.72v2.22z"/>
<path style="" d="m279.33 181.7v5.04q0 1.35-0.33 2.28t-0.84 1.44-1.47 0.78q-0.93 0.27-1.8 0.33-0.84 0.06-2.25 0.06-1.8 0-2.82-0.12-0.99-0.12-2.01-0.57-0.99-0.48-1.44-1.5-0.42-1.02-0.42-2.7v-5.04q0-1.44 0.33-2.43 0.36-0.99 0.84-1.53 0.51-0.54 1.47-0.81 0.96-0.3 1.77-0.36 0.84-0.06 2.28-0.06t2.25 0.06q0.84 0.06 1.8 0.36 0.96 0.27 1.44 0.81 0.51 0.54 0.84 1.53 0.36 0.99 0.36 2.43zm-2.76 5.43v-5.88q0-2.01-0.81-2.49t-3.12-0.48-3.12 0.48-0.81 2.49v5.88q0 0.96 0.21 1.53t0.78 0.84q0.57 0.24 1.17 0.3t1.77 0.06 1.77-0.06 1.17-0.3q0.57-0.27 0.78-0.84t0.21-1.53z"/>
<path style="" d="m296.38 181.7v5.04q0 1.35-0.33 2.28t-0.84 1.44-1.47 0.78q-0.93 0.27-1.8 0.33-0.84 0.06-2.25 0.06-1.8 0-2.82-0.12-0.99-0.12-2.01-0.57-0.99-0.48-1.44-1.5-0.42-1.02-0.42-2.7v-5.04q0-1.44 0.33-2.43 0.36-0.99 0.84-1.53 0.51-0.54 1.47-0.81 0.96-0.3 1.77-0.36 0.84-0.06 2.28-0.06t2.25 0.06q0.84 0.06 1.8 0.36 0.96 0.27 1.44 0.81 0.51 0.54 0.84 1.53 0.36 0.99 0.36 2.43zm-2.76 5.43v-5.88q0-2.01-0.81-2.49t-3.12-0.48-3.12 0.48-0.81 2.49v5.88q0 0.96 0.21 1.53t0.78 0.84q0.57 0.24 1.17 0.3t1.77 0.06 1.77-0.06 1.17-0.3q0.57-0.27 0.78-0.84t0.21-1.53z"/>
<path style="" d="m313.61 191.33h-3.36l-6.63-7.95 6.12-6.57h3.3l-6.3 6.57 6.87 7.95zm-10.32 0h-2.7v-21h2.7v21z"/>
<path style="" d="m329.23 180.62v5.97q0 1.32-0.39 2.28t-0.99 1.5q-0.57 0.51-1.53 0.81t-1.8 0.36q-0.84 0.09-2.04 0.09-1.56 0-2.55-0.15t-1.98-0.63-1.47-1.53q-0.48-1.08-0.48-2.73v-16.26h2.7v4.35q0 0.57-0.03 1.74 0 1.14 0 1.71 0.12-0.69 1.23-1.14 1.14-0.48 3.33-0.48 6 0 6 4.11zm-2.76 6.36v-5.7q0-1.86-0.87-2.34-0.87-0.51-3.09-0.51-2.13 0-2.97 0.57t-0.84 2.28v5.7q0 1.83 0.81 2.37 0.84 0.51 3.03 0.51 2.22 0 3.06-0.51 0.87-0.54 0.87-2.37z"/>
<path style="" d="m346.19 181.7v5.04q0 1.35-0.33 2.28t-0.84 1.44-1.47 0.78q-0.93 0.27-1.8 0.33-0.84 0.06-2.25 0.06-1.8 0-2.82-0.12-0.99-0.12-2.01-0.57-0.99-0.48-1.44-1.5-0.42-1.02-0.42-2.7v-5.04q0-1.44 0.33-2.43 0.36-0.99 0.84-1.53 0.51-0.54 1.47-0.81 0.96-0.3 1.77-0.36 0.84-0.06 2.28-0.06t2.25 0.06q0.84 0.06 1.8 0.36 0.96 0.27 1.44 0.81 0.51 0.54 0.84 1.53 0.36 0.99 0.36 2.43zm-2.76 5.43v-5.88q0-2.01-0.81-2.49t-3.12-0.48-3.12 0.48-0.81 2.49v5.88q0 0.96 0.21 1.53t0.78 0.84q0.57 0.24 1.17 0.3t1.77 0.06 1.77-0.06 1.17-0.3q0.57-0.27 0.78-0.84t0.21-1.53z"/>
<path style="" d="m363.24 181.7v5.04q0 1.35-0.33 2.28t-0.84 1.44-1.47 0.78q-0.93 0.27-1.8 0.33-0.84 0.06-2.25 0.06-1.8 0-2.82-0.12-0.99-0.12-2.01-0.57-0.99-0.48-1.44-1.5-0.42-1.02-0.42-2.7v-5.04q0-1.44 0.33-2.43 0.36-0.99 0.84-1.53 0.51-0.54 1.47-0.81 0.96-0.3 1.77-0.36 0.84-0.06 2.28-0.06t2.25 0.06q0.84 0.06 1.8 0.36 0.96 0.27 1.44 0.81 0.51 0.54 0.84 1.53 0.36 0.99 0.36 2.43zm-2.76 5.43v-5.88q0-2.01-0.81-2.49t-3.12-0.48-3.12 0.48-0.81 2.49v5.88q0 0.96 0.21 1.53t0.78 0.84q0.57 0.24 1.17 0.3t1.77 0.06 1.77-0.06 1.17-0.3q0.57-0.27 0.78-0.84t0.21-1.53z"/>
<path style="" d="m380.47 191.33h-3.36l-6.63-7.95 6.12-6.57h3.3l-6.3 6.57 6.87 7.95zm-10.32 0h-2.7v-21h2.7v21z"/>
</g>
</g>
</svg>
