<?xml version="1.0" encoding="UTF-8" standalone="no"?>
<!-- Created with Inkscape (http://www.inkscape.org/) -->
<svg
   xmlns:dc="http://purl.org/dc/elements/1.1/"
   xmlns:cc="http://web.resource.org/cc/"
   xmlns:rdf="http://www.w3.org/1999/02/22-rdf-syntax-ns#"
   xmlns:svg="http://www.w3.org/2000/svg"
   xmlns="http://www.w3.org/2000/svg"
   xmlns:xlink="http://www.w3.org/1999/xlink"
   xmlns:sodipodi="http://sodipodi.sourceforge.net/DTD/sodipodi-0.dtd"
   xmlns:inkscape="http://www.inkscape.org/namespaces/inkscape"
   width="300"
   height="360"
   id="svg2205"
   sodipodi:version="0.32"
   inkscape:version="0.45.1"
   sodipodi:docbase="/home/phsi/Drawing/ClipArt"
   sodipodi:docname="Radiator.svg"
   version="1.0"
   inkscape:output_extension="org.inkscape.output.svg.inkscape">
  <sodipodi:namedview
     id="base"
     pagecolor="#ffffff"
     bordercolor="#666666"
     borderopacity="1.0"
     gridtolerance="10000"
     guidetolerance="10"
     objecttolerance="10"
     inkscape:pageopacity="0.0"
     inkscape:pageshadow="2"
     inkscape:zoom="0.7"
     inkscape:cx="274.60759"
     inkscape:cy="166.79478"
     inkscape:document-units="px"
     inkscape:current-layer="layer1"
     width="300px"
     height="360px"
     inkscape:window-width="1280"
     inkscape:window-height="949"
     inkscape:window-x="0"
     inkscape:window-y="25" />
  <defs
     id="defs2207">
    <linearGradient
       id="linearGradient15524">
      <stop
         offset="0"
         style="stop-color:#b31d1d;stop-opacity:1;"
         id="stop15526" />
      <stop
         offset="0.27000001"
         style="stop-color:#9a1b1b;stop-opacity:0.49803922;"
         id="stop15543" />
      <stop
         offset="1"
         style="stop-color:#e92b2b;stop-opacity:0;"
         id="stop15528" />
    </linearGradient>
    <clipPath
       clipPathUnits="userSpaceOnUse"
       id="clipPath4357">
      <path
         style="fill:none;fill-opacity:1;fill-rule:evenodd;stroke:#000000;stroke-width:0.65338749px;stroke-linecap:butt;stroke-linejoin:miter;stroke-opacity:1"
         d="M -256.23704,579.63532 C -254.69268,573.50227 -249.20414,565.37297 -243.91931,561.79779 C -231.17441,553.17589 -227.8561,569.39527 -213.16053,564.833 C -198.46495,560.27073 -193.75244,543.22884 -178.58284,540.64707 C -163.41326,538.06528 -157.5074,553.74336 -142.1554,552.69457 C -126.8034,551.64578 -120.88246,535.02337 -105.49509,534.90821 C -90.107718,534.79305 -82.960859,551.51549 -67.608844,552.56428 C -52.25683,553.61307 -44.521961,538.05198 -29.352392,540.63377 C -14.182809,543.21556 -6.5512634,561.1527 8.1442823,565.71496 C 22.839869,570.27724 33.166338,556.56655 43.550237,567.92068 C 49.066681,573.95255 49.326109,585.30218 49.503505,592.753 L 49.503505,593.71919 L 49.503505,714.08696 L -256.23704,714.08696 L -256.23704,579.63532 z "
         id="path4359"
         transform="matrix(2.204693,0,0,2.3680367,-64.831399,-1102.6811)"
         sodipodi:nodetypes="csssssssssccccc" />
    </clipPath>
    <linearGradient
       inkscape:collect="always"
       xlink:href="#linearGradient15524"
       id="linearGradient4361"
       gradientUnits="userSpaceOnUse"
       x1="0"
       y1="124"
       x2="234.08315"
       y2="124" />
    <linearGradient
       inkscape:collect="always"
       xlink:href="#linearGradient15524"
       id="linearGradient4363"
       gradientUnits="userSpaceOnUse"
       x1="13.363832"
       y1="124"
       x2="263.94348"
       y2="124" />
    <linearGradient
       inkscape:collect="always"
       xlink:href="#linearGradient15524"
       id="linearGradient4365"
       gradientUnits="userSpaceOnUse"
       x1="13.363832"
       y1="124"
       x2="263.94348"
       y2="124" />
    <linearGradient
       inkscape:collect="always"
       xlink:href="#linearGradient15524"
       id="linearGradient4367"
       gradientUnits="userSpaceOnUse"
       x1="13.363832"
       y1="124"
       x2="263.94348"
       y2="124" />
    <linearGradient
       inkscape:collect="always"
       xlink:href="#linearGradient15524"
       id="linearGradient4369"
       gradientUnits="userSpaceOnUse"
       x1="13.363832"
       y1="124"
       x2="263.94348"
       y2="124" />
    <linearGradient
       inkscape:collect="always"
       xlink:href="#linearGradient15524"
       id="linearGradient4371"
       gradientUnits="userSpaceOnUse"
       x1="13.363832"
       y1="124"
       x2="263.94348"
       y2="124" />
  </defs>
  <metadata
     id="metadata2210">
    <rdf:RDF>
      <cc:Work
         rdf:about="">
        <dc:format>image/svg+xml</dc:format>
        <dc:type
           rdf:resource="http://purl.org/dc/dcmitype/StillImage" />
        <dc:title>Radiator Icon</dc:title>
        <dc:creator>
          <cc:Agent>
            <dc:title>Philip Serracino Inglott</dc:title>
          </cc:Agent>
        </dc:creator>
        <dc:date>26 Feb 2008</dc:date>
        <cc:license
           rdf:resource="http://creativecommons.org/licenses/by-sa/2.5/" />
      </cc:Work>
      <cc:License
         rdf:about="http://creativecommons.org/licenses/by-sa/2.5/">
        <cc:permits
           rdf:resource="http://web.resource.org/cc/Reproduction" />
        <cc:permits
           rdf:resource="http://web.resource.org/cc/Distribution" />
        <cc:requires
           rdf:resource="http://web.resource.org/cc/Notice" />
        <cc:requires
           rdf:resource="http://web.resource.org/cc/Attribution" />
        <cc:permits
           rdf:resource="http://web.resource.org/cc/DerivativeWorks" />
        <cc:requires
           rdf:resource="http://web.resource.org/cc/ShareAlike" />
      </cc:License>
    </rdf:RDF>
  </metadata>
  <g
     inkscape:label="Layer 1"
     id="layer1"
     inkscape:groupmode="layer"
     transform="translate(-208.0027,-449.56904)">
    <g
       clip-path="none"
       style="fill:#1a9a1a;fill-opacity:1"
       id="g15475"
       transform="matrix(0.4535779,0,0,0.4535779,491.44979,382.97584)">
      <g
         id="g4338"
         clip-path="url(#clipPath4357)">
        <path
           id="path15479"
           inkscape:tile-w="168.90669"
           d="M 36.454593,106 C 25.715344,106 23.715114,118.61369 12.975862,118.61369 C 8.5226999,118.61369 2.9894524,114.92528 -3.1641356e-15,113.27936 L -3.1641356e-15,138.67789 C 2.9894524,140.32381 8.5226999,142 12.975862,142 C 23.715114,142 25.715344,129.39852 36.454593,129.39852 C 47.193842,129.39852 50.472884,142.00001 61.21214,142 C 71.951388,142 76.082975,129.39852 86.822226,129.39852 C 97.561475,129.39852 101.69306,142.00001 112.43231,142 C 123.17157,142 128.15569,129.39852 138.89495,129.39852 C 149.63421,129.39852 155.04459,142.00001 165.78383,142 C 176.52308,142 181.93351,129.39852 192.67274,129.39852 C 203.412,129.39852 210.1012,142.00001 220.84046,142 C 226.54569,142 231.21937,138.82737 234.08314,136.24736 L 234.08314,112.84883 C 231.21937,115.42883 226.54569,118.61369 220.84046,118.61369 C 210.1012,118.61369 203.412,106 192.67274,106 C 181.93351,106 176.52308,118.61369 165.78383,118.61369 C 155.04459,118.61369 149.63419,106 138.89495,106 C 128.1557,106 123.17157,118.61369 112.43231,118.61369 C 101.69306,118.61369 97.561478,106 86.822226,106 C 76.082972,106 71.951388,118.61369 61.21214,118.61369 C 50.472884,118.61369 47.193842,106 36.454593,106 z "
           inkscape:tile-cx="-736.21353"
           inkscape:tile-cy="368.59052"
           inkscape:tile-h="1114.446"
           style="fill:url(#linearGradient4361);fill-opacity:1;fill-rule:evenodd;stroke:none;stroke-width:1.05100191px;stroke-linecap:butt;stroke-linejoin:miter;stroke-opacity:1"
           transform="matrix(0,-1.6850681,-1.858699,0,-314.8795,557.68305)"
           sodipodi:nodetypes="csccsssssssssccsssssssc" />
        <path
           transform="matrix(0,-1.6850681,-1.858699,0,-214.50976,557.68305)"
           id="use15481"
           sodipodi:nodetypes="csccsssssssssccsssssssc"
           d="M 36.454593,106 C 25.715344,106 23.715114,118.61369 12.975862,118.61369 C 8.5226999,118.61369 2.9894524,114.92528 -3.1641356e-15,113.27936 L -3.1641356e-15,138.67789 C 2.9894524,140.32381 8.5226999,142 12.975862,142 C 23.715114,142 25.715344,129.39852 36.454593,129.39852 C 47.193842,129.39852 50.472884,142.00001 61.21214,142 C 71.951388,142 76.082975,129.39852 86.822226,129.39852 C 97.561475,129.39852 101.69306,142.00001 112.43231,142 C 123.17157,142 128.15569,129.39852 138.89495,129.39852 C 149.63421,129.39852 155.04459,142.00001 165.78383,142 C 176.52308,142 181.93351,129.39852 192.67274,129.39852 C 203.412,129.39852 210.1012,142.00001 220.84046,142 C 226.54569,142 231.21937,138.82737 234.08314,136.24736 L 234.08314,112.84883 C 231.21937,115.42883 226.54569,118.61369 220.84046,118.61369 C 210.1012,118.61369 203.412,106 192.67274,106 C 181.93351,106 176.52308,118.61369 165.78383,118.61369 C 155.04459,118.61369 149.63419,106 138.89495,106 C 128.1557,106 123.17157,118.61369 112.43231,118.61369 C 101.69306,118.61369 97.561478,106 86.822226,106 C 76.082972,106 71.951388,118.61369 61.21214,118.61369 C 50.472884,118.61369 47.193842,106 36.454593,106 z "
           style="fill:url(#linearGradient4363);fill-opacity:1;fill-rule:evenodd;stroke:none;stroke-width:1.05100191px;stroke-linecap:butt;stroke-linejoin:miter;stroke-opacity:1" />
        <path
           id="use15483"
           clip-path="none"
           d="M 36.454593,106 C 25.715344,106 23.715114,118.61369 12.975862,118.61369 C 8.5226999,118.61369 2.9894524,114.92528 -3.1641356e-15,113.27936 L -3.1641356e-15,138.67789 C 2.9894524,140.32381 8.5226999,142 12.975862,142 C 23.715114,142 25.715344,129.39852 36.454593,129.39852 C 47.193842,129.39852 50.472884,142.00001 61.21214,142 C 71.951388,142 76.082975,129.39852 86.822226,129.39852 C 97.561475,129.39852 101.69306,142.00001 112.43231,142 C 123.17157,142 128.15569,129.39852 138.89495,129.39852 C 149.63421,129.39852 155.04459,142.00001 165.78383,142 C 176.52308,142 181.93351,129.39852 192.67274,129.39852 C 203.412,129.39852 210.1012,142.00001 220.84046,142 C 226.54569,142 231.21937,138.82737 234.08314,136.24736 L 234.08314,112.84883 C 231.21937,115.42883 226.54569,118.61369 220.84046,118.61369 C 210.1012,118.61369 203.412,106 192.67274,106 C 181.93351,106 176.52308,118.61369 165.78383,118.61369 C 155.04459,118.61369 149.63419,106 138.89495,106 C 128.1557,106 123.17157,118.61369 112.43231,118.61369 C 101.69306,118.61369 97.561478,106 86.822226,106 C 76.082972,106 71.951388,118.61369 61.21214,118.61369 C 50.472884,118.61369 47.193842,106 36.454593,106 z "
           transform="matrix(0,-1.6850681,-1.858699,0,-114.14001,557.68305)"
           style="fill:url(#linearGradient4365);fill-opacity:1;fill-rule:evenodd;stroke:none;stroke-width:1.05100191px;stroke-linecap:butt;stroke-linejoin:miter;stroke-opacity:1"
           sodipodi:nodetypes="csccsssssssssccsssssssc" />
        <path
           transform="matrix(0,-1.6850681,-1.858699,0,-13.770269,557.68305)"
           id="use15485"
           sodipodi:nodetypes="csccsssssssssccsssssssc"
           d="M 36.454593,106 C 25.715344,106 23.715114,118.61369 12.975862,118.61369 C 8.5226999,118.61369 2.9894524,114.92528 -3.1641356e-15,113.27936 L -3.1641356e-15,138.67789 C 2.9894524,140.32381 8.5226999,142 12.975862,142 C 23.715114,142 25.715344,129.39852 36.454593,129.39852 C 47.193842,129.39852 50.472884,142.00001 61.21214,142 C 71.951388,142 76.082975,129.39852 86.822226,129.39852 C 97.561475,129.39852 101.69306,142.00001 112.43231,142 C 123.17157,142 128.15569,129.39852 138.89495,129.39852 C 149.63421,129.39852 155.04459,142.00001 165.78383,142 C 176.52308,142 181.93351,129.39852 192.67274,129.39852 C 203.412,129.39852 210.1012,142.00001 220.84046,142 C 226.54569,142 231.21937,138.82737 234.08314,136.24736 L 234.08314,112.84883 C 231.21937,115.42883 226.54569,118.61369 220.84046,118.61369 C 210.1012,118.61369 203.412,106 192.67274,106 C 181.93351,106 176.52308,118.61369 165.78383,118.61369 C 155.04459,118.61369 149.63419,106 138.89495,106 C 128.1557,106 123.17157,118.61369 112.43231,118.61369 C 101.69306,118.61369 97.561478,106 86.822226,106 C 76.082972,106 71.951388,118.61369 61.21214,118.61369 C 50.472884,118.61369 47.193842,106 36.454593,106 z "
           style="fill:url(#linearGradient4367);fill-opacity:1;fill-rule:evenodd;stroke:none;stroke-width:1.05100191px;stroke-linecap:butt;stroke-linejoin:miter;stroke-opacity:1" />
        <path
           transform="matrix(0,-1.6850681,-1.858699,0,86.599461,557.68305)"
           id="use15487"
           sodipodi:nodetypes="csccsssssssssccsssssssc"
           d="M 36.454593,106 C 25.715344,106 23.715114,118.61369 12.975862,118.61369 C 8.5226999,118.61369 2.9894524,114.92528 -3.1641356e-15,113.27936 L -3.1641356e-15,138.67789 C 2.9894524,140.32381 8.5226999,142 12.975862,142 C 23.715114,142 25.715344,129.39852 36.454593,129.39852 C 47.193842,129.39852 50.472884,142.00001 61.21214,142 C 71.951388,142 76.082975,129.39852 86.822226,129.39852 C 97.561475,129.39852 101.69306,142.00001 112.43231,142 C 123.17157,142 128.15569,129.39852 138.89495,129.39852 C 149.63421,129.39852 155.04459,142.00001 165.78383,142 C 176.52308,142 181.93351,129.39852 192.67274,129.39852 C 203.412,129.39852 210.1012,142.00001 220.84046,142 C 226.54569,142 231.21937,138.82737 234.08314,136.24736 L 234.08314,112.84883 C 231.21937,115.42883 226.54569,118.61369 220.84046,118.61369 C 210.1012,118.61369 203.412,106 192.67274,106 C 181.93351,106 176.52308,118.61369 165.78383,118.61369 C 155.04459,118.61369 149.63419,106 138.89495,106 C 128.1557,106 123.17157,118.61369 112.43231,118.61369 C 101.69306,118.61369 97.561478,106 86.822226,106 C 76.082972,106 71.951388,118.61369 61.21214,118.61369 C 50.472884,118.61369 47.193842,106 36.454593,106 z "
           style="fill:url(#linearGradient4369);fill-opacity:1;fill-rule:evenodd;stroke:none;stroke-width:1.05100191px;stroke-linecap:butt;stroke-linejoin:miter;stroke-opacity:1" />
        <path
           transform="matrix(0,-1.6850681,-1.858699,0,186.96924,557.68305)"
           id="use15489"
           sodipodi:nodetypes="csccsssssssssccsssssssc"
           d="M 36.454593,106 C 25.715344,106 23.715114,118.61369 12.975862,118.61369 C 8.5226999,118.61369 2.9894524,114.92528 -3.1641356e-15,113.27936 L -3.1641356e-15,138.67789 C 2.9894524,140.32381 8.5226999,142 12.975862,142 C 23.715114,142 25.715344,129.39852 36.454593,129.39852 C 47.193842,129.39852 50.472884,142.00001 61.21214,142 C 71.951388,142 76.082975,129.39852 86.822226,129.39852 C 97.561475,129.39852 101.69306,142.00001 112.43231,142 C 123.17157,142 128.15569,129.39852 138.89495,129.39852 C 149.63421,129.39852 155.04459,142.00001 165.78383,142 C 176.52308,142 181.93351,129.39852 192.67274,129.39852 C 203.412,129.39852 210.1012,142.00001 220.84046,142 C 226.54569,142 231.21937,138.82737 234.08314,136.24736 L 234.08314,112.84883 C 231.21937,115.42883 226.54569,118.61369 220.84046,118.61369 C 210.1012,118.61369 203.412,106 192.67274,106 C 181.93351,106 176.52308,118.61369 165.78383,118.61369 C 155.04459,118.61369 149.63419,106 138.89495,106 C 128.1557,106 123.17157,118.61369 112.43231,118.61369 C 101.69306,118.61369 97.561478,106 86.822226,106 C 76.082972,106 71.951388,118.61369 61.21214,118.61369 C 50.472884,118.61369 47.193842,106 36.454593,106 z "
           style="fill:url(#linearGradient4371);fill-opacity:1;fill-rule:evenodd;stroke:none;stroke-width:1.05100191px;stroke-linecap:butt;stroke-linejoin:miter;stroke-opacity:1" />
      </g>
      <path
         style="opacity:1;color:#000000;fill:#000000;fill-opacity:1;fill-rule:nonzero;stroke:none;stroke-width:50;stroke-linecap:butt;stroke-linejoin:round;marker:none;stroke-miterlimit:4;stroke-dasharray:none;stroke-dashoffset:0;stroke-opacity:1;visibility:visible;display:inline;overflow:visible;enable-background:accumulate"
         d="M -28.5625,395.9375 C -42.369047,395.93887 -53.56112,407.13095 -53.5625,420.9375 L -53.5625,875.21875 C -53.561092,889.02532 -42.369027,900.21735 -28.5625,900.21875 L -25.375,900.21875 C -32.021817,904.67108 -36.4054,912.40747 -36.40625,921.21875 L -36.40625,994.21875 L 11.84375,994.21875 L 11.84375,946.21875 L 862.4375,946.21875 L 862.4375,994.21875 L 910.6875,994.21875 L 910.6875,921.21875 C 910.68664,912.40749 906.30306,904.67107 899.65625,900.21875 L 902.84375,900.21875 C 916.65024,900.21738 927.84235,889.0253 927.84375,875.21875 L 927.84375,420.9375 C 927.84234,407.13094 916.65025,395.93888 902.84375,395.9375 L -28.5625,395.9375 z M -3.5625,445.9375 L 22.53125,445.9375 L 22.53125,850.21875 L -3.5625,850.21875 L -3.5625,445.9375 z M 55.25,445.9375 L 94.9375,445.9375 L 94.9375,850.21875 L 55.25,850.21875 L 55.25,445.9375 z M 127.65625,445.9375 L 167.375,445.9375 L 167.375,850.21875 L 127.65625,850.21875 L 127.65625,445.9375 z M 200.0625,445.9375 L 239.78125,445.9375 L 239.78125,850.21875 L 200.0625,850.21875 L 200.0625,445.9375 z M 272.46875,445.9375 L 312.1875,445.9375 L 312.1875,850.21875 L 272.46875,850.21875 L 272.46875,445.9375 z M 344.875,445.9375 L 384.59375,445.9375 L 384.59375,850.21875 L 344.875,850.21875 L 344.875,445.9375 z M 417.28125,445.9375 L 457,445.9375 L 457,850.21875 L 417.28125,850.21875 L 417.28125,445.9375 z M 489.6875,445.9375 L 529.40625,445.9375 L 529.40625,850.21875 L 489.6875,850.21875 L 489.6875,445.9375 z M 562.09375,445.9375 L 601.8125,445.9375 L 601.8125,850.21875 L 562.09375,850.21875 L 562.09375,445.9375 z M 634.5,445.9375 L 674.21875,445.9375 L 674.21875,850.21875 L 634.5,850.21875 L 634.5,445.9375 z M 706.90625,445.9375 L 746.625,445.9375 L 746.625,850.21875 L 706.90625,850.21875 L 706.90625,445.9375 z M 779.34375,445.9375 L 819.03125,445.9375 L 819.03125,850.21875 L 779.34375,850.21875 L 779.34375,445.9375 z M 851.75,445.9375 L 877.84375,445.9375 L 877.84375,850.21875 L 851.75,850.21875 L 851.75,445.9375 z "
         id="path15491"
         transform="matrix(0.6294552,0,0,0.6000378,-569.37029,327.50244)" />
    </g>
  </g>
</svg>
